<mxfile host="app.diagrams.net" modified="2022-09-26T04:29:34.342Z" agent="5.0 (Macintosh; Intel Mac OS X 10_15_7) AppleWebKit/537.36 (KHTML, like Gecko) Chrome/105.0.0.0 Safari/537.36" etag="SvBCjKNIeRyljym6nInK" version="20.3.3" type="github">
  <diagram id="C5RBs43oDa-KdzZeNtuy" name="Page-1">
    <mxGraphModel dx="541" dy="365" grid="1" gridSize="10" guides="1" tooltips="1" connect="1" arrows="1" fold="1" page="1" pageScale="1" pageWidth="827" pageHeight="1169" math="0" shadow="0">
      <root>
        <mxCell id="WIyWlLk6GJQsqaUBKTNV-0" />
        <mxCell id="WIyWlLk6GJQsqaUBKTNV-1" parent="WIyWlLk6GJQsqaUBKTNV-0" />
        <mxCell id="bf4fuFXI-GWrUewTYFZa-3" style="edgeStyle=orthogonalEdgeStyle;rounded=0;orthogonalLoop=1;jettySize=auto;html=1;entryX=0.5;entryY=0;entryDx=0;entryDy=0;" edge="1" parent="WIyWlLk6GJQsqaUBKTNV-1" source="WIyWlLk6GJQsqaUBKTNV-3" target="WIyWlLk6GJQsqaUBKTNV-6">
          <mxGeometry relative="1" as="geometry" />
        </mxCell>
        <mxCell id="WIyWlLk6GJQsqaUBKTNV-3" value="챌린지 개설" style="rounded=1;whiteSpace=wrap;html=1;fontSize=12;glass=0;strokeWidth=1;shadow=0;" parent="WIyWlLk6GJQsqaUBKTNV-1" vertex="1">
          <mxGeometry x="150" y="20" width="120" height="40" as="geometry" />
        </mxCell>
        <mxCell id="bf4fuFXI-GWrUewTYFZa-11" style="edgeStyle=orthogonalEdgeStyle;rounded=0;orthogonalLoop=1;jettySize=auto;html=1;" edge="1" parent="WIyWlLk6GJQsqaUBKTNV-1" source="WIyWlLk6GJQsqaUBKTNV-6" target="bf4fuFXI-GWrUewTYFZa-10">
          <mxGeometry relative="1" as="geometry" />
        </mxCell>
        <mxCell id="WIyWlLk6GJQsqaUBKTNV-6" value="주제 선택&lt;br&gt;" style="rhombus;whiteSpace=wrap;html=1;shadow=0;fontFamily=Helvetica;fontSize=12;align=center;strokeWidth=1;spacing=6;spacingTop=-4;" parent="WIyWlLk6GJQsqaUBKTNV-1" vertex="1">
          <mxGeometry x="160" y="130" width="100" height="80" as="geometry" />
        </mxCell>
        <mxCell id="bf4fuFXI-GWrUewTYFZa-2" style="edgeStyle=orthogonalEdgeStyle;rounded=0;orthogonalLoop=1;jettySize=auto;html=1;" edge="1" parent="WIyWlLk6GJQsqaUBKTNV-1" source="bf4fuFXI-GWrUewTYFZa-0" target="WIyWlLk6GJQsqaUBKTNV-3">
          <mxGeometry relative="1" as="geometry" />
        </mxCell>
        <mxCell id="bf4fuFXI-GWrUewTYFZa-0" value="회원&lt;br&gt;" style="shape=umlActor;verticalLabelPosition=bottom;verticalAlign=top;html=1;outlineConnect=0;" vertex="1" parent="WIyWlLk6GJQsqaUBKTNV-1">
          <mxGeometry x="50" y="10" width="30" height="60" as="geometry" />
        </mxCell>
        <mxCell id="bf4fuFXI-GWrUewTYFZa-13" style="edgeStyle=orthogonalEdgeStyle;rounded=0;orthogonalLoop=1;jettySize=auto;html=1;entryX=0.5;entryY=0;entryDx=0;entryDy=0;" edge="1" parent="WIyWlLk6GJQsqaUBKTNV-1" source="bf4fuFXI-GWrUewTYFZa-10" target="bf4fuFXI-GWrUewTYFZa-12">
          <mxGeometry relative="1" as="geometry" />
        </mxCell>
        <mxCell id="bf4fuFXI-GWrUewTYFZa-10" value="챌린지 제목" style="rhombus;whiteSpace=wrap;html=1;shadow=0;fontFamily=Helvetica;fontSize=12;align=center;strokeWidth=1;spacing=6;spacingTop=-4;" vertex="1" parent="WIyWlLk6GJQsqaUBKTNV-1">
          <mxGeometry x="160" y="270" width="100" height="80" as="geometry" />
        </mxCell>
        <mxCell id="bf4fuFXI-GWrUewTYFZa-15" style="edgeStyle=orthogonalEdgeStyle;rounded=0;orthogonalLoop=1;jettySize=auto;html=1;entryX=0.5;entryY=0;entryDx=0;entryDy=0;" edge="1" parent="WIyWlLk6GJQsqaUBKTNV-1" source="bf4fuFXI-GWrUewTYFZa-12" target="bf4fuFXI-GWrUewTYFZa-14">
          <mxGeometry relative="1" as="geometry" />
        </mxCell>
        <mxCell id="bf4fuFXI-GWrUewTYFZa-12" value="인증 방법" style="rhombus;whiteSpace=wrap;html=1;shadow=0;fontFamily=Helvetica;fontSize=12;align=center;strokeWidth=1;spacing=6;spacingTop=-4;" vertex="1" parent="WIyWlLk6GJQsqaUBKTNV-1">
          <mxGeometry x="160" y="410" width="100" height="80" as="geometry" />
        </mxCell>
        <mxCell id="bf4fuFXI-GWrUewTYFZa-17" style="edgeStyle=orthogonalEdgeStyle;rounded=0;orthogonalLoop=1;jettySize=auto;html=1;entryX=0.5;entryY=0;entryDx=0;entryDy=0;" edge="1" parent="WIyWlLk6GJQsqaUBKTNV-1" source="bf4fuFXI-GWrUewTYFZa-14" target="bf4fuFXI-GWrUewTYFZa-16">
          <mxGeometry relative="1" as="geometry" />
        </mxCell>
        <mxCell id="bf4fuFXI-GWrUewTYFZa-14" value="챌린지 시작일" style="rhombus;whiteSpace=wrap;html=1;shadow=0;fontFamily=Helvetica;fontSize=12;align=center;strokeWidth=1;spacing=6;spacingTop=-4;" vertex="1" parent="WIyWlLk6GJQsqaUBKTNV-1">
          <mxGeometry x="160" y="550" width="100" height="80" as="geometry" />
        </mxCell>
        <mxCell id="bf4fuFXI-GWrUewTYFZa-19" style="edgeStyle=orthogonalEdgeStyle;rounded=0;orthogonalLoop=1;jettySize=auto;html=1;entryX=0.5;entryY=0;entryDx=0;entryDy=0;" edge="1" parent="WIyWlLk6GJQsqaUBKTNV-1" source="bf4fuFXI-GWrUewTYFZa-16" target="bf4fuFXI-GWrUewTYFZa-18">
          <mxGeometry relative="1" as="geometry" />
        </mxCell>
        <mxCell id="bf4fuFXI-GWrUewTYFZa-16" value="모집 방식" style="rhombus;whiteSpace=wrap;html=1;shadow=0;fontFamily=Helvetica;fontSize=12;align=center;strokeWidth=1;spacing=6;spacingTop=-4;" vertex="1" parent="WIyWlLk6GJQsqaUBKTNV-1">
          <mxGeometry x="160" y="690" width="100" height="80" as="geometry" />
        </mxCell>
        <mxCell id="bf4fuFXI-GWrUewTYFZa-21" style="edgeStyle=orthogonalEdgeStyle;rounded=0;orthogonalLoop=1;jettySize=auto;html=1;entryX=0.5;entryY=0;entryDx=0;entryDy=0;" edge="1" parent="WIyWlLk6GJQsqaUBKTNV-1" source="bf4fuFXI-GWrUewTYFZa-18" target="bf4fuFXI-GWrUewTYFZa-20">
          <mxGeometry relative="1" as="geometry" />
        </mxCell>
        <mxCell id="bf4fuFXI-GWrUewTYFZa-18" value="챌린지 대표 이미지&lt;br&gt;" style="rhombus;whiteSpace=wrap;html=1;shadow=0;fontFamily=Helvetica;fontSize=12;align=center;strokeWidth=1;spacing=6;spacingTop=-4;" vertex="1" parent="WIyWlLk6GJQsqaUBKTNV-1">
          <mxGeometry x="160" y="830" width="100" height="80" as="geometry" />
        </mxCell>
        <mxCell id="bf4fuFXI-GWrUewTYFZa-25" style="edgeStyle=orthogonalEdgeStyle;rounded=0;orthogonalLoop=1;jettySize=auto;html=1;" edge="1" parent="WIyWlLk6GJQsqaUBKTNV-1" source="bf4fuFXI-GWrUewTYFZa-20" target="bf4fuFXI-GWrUewTYFZa-23">
          <mxGeometry relative="1" as="geometry" />
        </mxCell>
        <mxCell id="bf4fuFXI-GWrUewTYFZa-26" style="edgeStyle=orthogonalEdgeStyle;rounded=0;orthogonalLoop=1;jettySize=auto;html=1;" edge="1" parent="WIyWlLk6GJQsqaUBKTNV-1" source="bf4fuFXI-GWrUewTYFZa-20" target="bf4fuFXI-GWrUewTYFZa-24">
          <mxGeometry relative="1" as="geometry" />
        </mxCell>
        <mxCell id="bf4fuFXI-GWrUewTYFZa-20" value="챌린지 소개" style="rhombus;whiteSpace=wrap;html=1;shadow=0;fontFamily=Helvetica;fontSize=12;align=center;strokeWidth=1;spacing=6;spacingTop=-4;" vertex="1" parent="WIyWlLk6GJQsqaUBKTNV-1">
          <mxGeometry x="160" y="980" width="100" height="80" as="geometry" />
        </mxCell>
        <mxCell id="bf4fuFXI-GWrUewTYFZa-23" value="취소" style="rounded=1;whiteSpace=wrap;html=1;fontSize=12;glass=0;strokeWidth=1;shadow=0;" vertex="1" parent="WIyWlLk6GJQsqaUBKTNV-1">
          <mxGeometry x="60" y="1100" width="120" height="40" as="geometry" />
        </mxCell>
        <mxCell id="bf4fuFXI-GWrUewTYFZa-24" value="개설하기" style="rounded=1;whiteSpace=wrap;html=1;fontSize=12;glass=0;strokeWidth=1;shadow=0;" vertex="1" parent="WIyWlLk6GJQsqaUBKTNV-1">
          <mxGeometry x="250" y="1100" width="120" height="40" as="geometry" />
        </mxCell>
      </root>
    </mxGraphModel>
  </diagram>
</mxfile>
